<svg width="642" height="86" viewBox="0 0 642 86" fill="none" xmlns="http://www.w3.org/2000/svg">
<rect width="642" height="86" fill="#003149"/>
<path d="M54.6078 49.4978C53.6964 46.7308 52.7523 43.9801 51.7757 41.2457C50.8317 38.5113 49.9202 35.7606 49.0413 32.9936C48.0973 35.7606 47.1533 38.5113 46.2092 41.2457C45.2978 43.9801 44.37 46.7308 43.426 49.4978H54.6078ZM69.2565 63.5117C69.2565 64 68.9473 64.2441 68.3288 64.2441C68.1335 64.2441 67.9381 64.2441 67.7428 64.2441C67.5475 64.2441 67.3359 64.2279 67.1081 64.1953C66.2942 64.1302 65.4479 64.0977 64.5689 64.0977C63.7226 64.0977 62.8762 64.0977 62.0298 64.0977C60.9556 64.0977 59.8814 64.0977 58.8071 64.0977C57.7329 64.0977 56.6424 64.1302 55.5356 64.1953C55.4054 64.2279 55.2752 64.2441 55.1449 64.2441C55.0147 64.2441 54.8845 64.2441 54.7543 64.2441C54.2986 64.2441 54.0707 64.0163 54.0707 63.5605C54.0707 63.1699 54.2009 62.942 54.4613 62.8769C54.7543 62.7793 55.0798 62.7467 55.4379 62.7793C55.796 62.8118 56.089 62.8281 56.3168 62.8281C56.9028 62.8281 57.326 62.7142 57.5864 62.4863C57.8794 62.2259 58.0259 61.7864 58.0259 61.1679C58.0259 60.8098 57.9119 60.1913 57.6841 59.3124C57.4562 58.4009 57.1795 57.4081 56.854 56.3338C56.5284 55.2596 56.2029 54.2668 55.8774 53.3553C55.5844 52.4113 55.3728 51.7439 55.2426 51.3533H42.7912C42.7261 51.5486 42.5796 51.9881 42.3517 52.6717C42.1239 53.3553 41.8472 54.1528 41.5217 55.0643C41.2287 55.9758 40.9357 56.871 40.6427 57.7499C40.3498 58.6288 40.1056 59.3938 39.9103 60.0449C39.715 60.6634 39.6173 61.0377 39.6173 61.1679C39.6173 61.7864 39.7801 62.2096 40.1056 62.4375C40.4311 62.6653 40.838 62.7956 41.3263 62.8281C41.8146 62.8281 42.2866 62.8281 42.7424 62.8281C42.9051 62.8281 43.0354 62.942 43.133 63.1699C43.2307 63.3652 43.2795 63.5443 43.2795 63.707C43.2795 63.9023 43.1981 64.0488 43.0354 64.1465C42.9051 64.2441 42.7587 64.293 42.5959 64.293C41.5217 64.293 40.4474 64.2604 39.3732 64.1953C38.3315 64.1628 37.2898 64.1465 36.2481 64.1465C35.7273 64.1465 35.2064 64.1628 34.6856 64.1953C34.1648 64.2279 33.6276 64.2441 33.0742 64.2441C32.9115 64.2441 32.7487 64.179 32.5859 64.0488C32.4232 63.9186 32.3418 63.7721 32.3418 63.6094C32.3418 63.2513 32.472 63.0234 32.7324 62.9258C32.9929 62.8281 33.2858 62.7956 33.6114 62.8281C33.9694 62.8281 34.2624 62.8281 34.4903 62.8281C34.9135 62.8281 35.2553 62.6653 35.5157 62.3398C35.8087 61.9817 36.0203 61.6399 36.1505 61.3144C38.0711 56.4966 39.894 51.6625 41.6193 46.8122C43.3446 41.9293 45.0211 37.0301 46.6487 32.1147C46.7789 31.7566 46.9417 31.252 47.137 30.601C47.3323 29.9499 47.43 29.4616 47.43 29.1361C47.43 28.9408 47.3811 28.778 47.2835 28.6478C47.2184 28.485 47.1858 28.3386 47.1858 28.2083C47.1858 28.0781 47.3486 27.9805 47.6741 27.9154C47.9996 27.8503 48.3414 27.8014 48.6995 27.7689C49.0576 27.7363 49.2855 27.7201 49.3831 27.7201C50.0667 27.6224 50.7341 27.5247 51.3851 27.4271C52.0687 27.3294 52.7523 27.248 53.4359 27.1829L65.399 60.9238C65.6595 61.705 66.0013 62.2096 66.4244 62.4375C66.8802 62.6328 67.4824 62.7304 68.2311 62.7304C68.5241 62.7304 68.7682 62.7793 68.9636 62.8769C69.1589 62.942 69.2565 63.1536 69.2565 63.5117ZM89.9314 37.1441C89.9314 34.7352 89.3943 32.8797 88.3201 31.5775C87.2784 30.2754 85.5042 29.6244 82.9977 29.6244H82.1188C81.8584 29.6244 81.5817 29.6244 81.2887 29.6244C80.9957 29.6244 80.719 29.6569 80.4586 29.722C80.1331 29.8197 79.9215 29.9662 79.8238 30.1615C79.7262 30.3568 79.6773 30.6335 79.6773 30.9916C79.6773 32.8796 79.661 34.7677 79.6285 36.6558C79.6285 38.5113 79.6285 40.3993 79.6285 42.3199V44.3219C79.8564 44.3545 80.0842 44.387 80.3121 44.4196C80.54 44.4196 80.7678 44.4196 80.9957 44.4196C82.6884 44.4196 84.2021 44.2243 85.5368 43.8336C86.904 43.4104 87.9783 42.678 88.7595 41.6363C89.5408 40.5621 89.9314 39.0647 89.9314 37.1441ZM102.334 63.3164C102.334 63.6094 102.057 63.8372 101.504 64C100.983 64.1302 100.348 64.2116 99.5996 64.2441C98.8834 64.3093 98.1998 64.3418 97.5487 64.3418C96.8977 64.3744 96.4582 64.3906 96.2304 64.3906C94.9934 64.3906 93.8703 64.2604 92.8612 64C91.8846 63.7396 91.0545 63.0071 90.3709 61.8027C88.8734 59.1985 87.4086 56.5617 85.9763 53.8924C84.5439 51.1905 83.1116 48.5049 81.6793 45.8356L79.6285 45.7868C79.6285 48.3584 79.6285 50.9464 79.6285 53.5506C79.661 56.1223 79.6773 58.7102 79.6773 61.3144C79.6773 61.6074 79.7587 61.9004 79.9215 62.1933C80.0842 62.4537 80.3284 62.584 80.6539 62.584C81.0445 62.584 81.4352 62.5677 81.8258 62.5351C82.2164 62.5026 82.6071 62.4863 82.9977 62.4863C83.1605 62.4863 83.3069 62.6002 83.4372 62.8281C83.5999 63.0234 83.6813 63.2025 83.6813 63.3652C83.6813 63.5931 83.6162 63.7884 83.486 63.9512C83.3883 64.1139 83.2256 64.1953 82.9977 64.1953C82.7047 64.1953 82.428 64.179 82.1676 64.1465C81.9072 64.1139 81.6468 64.0977 81.3863 64.0977C80.8004 64.0326 80.2144 64 79.6285 64C79.0425 64 78.4566 64 77.8706 64C76.4709 64 75.0548 64.0326 73.6225 64.0977C72.2228 64.1628 70.8067 64.1953 69.3744 64.1953C68.821 64.1953 68.5443 63.9023 68.5443 63.3164C68.5443 63.0885 68.642 62.9095 68.8373 62.7793C69.0326 62.6165 69.2442 62.5351 69.4721 62.5351C69.7976 62.5351 70.1231 62.5514 70.4486 62.584C70.7742 62.6165 71.0997 62.6328 71.4252 62.6328C71.881 62.6328 72.2716 62.5514 72.5971 62.3886C72.9226 62.2259 73.0854 61.8841 73.0854 61.3632V31.1869C73.0854 30.6986 72.9877 30.3731 72.7924 30.2103C72.5971 30.015 72.2716 29.9174 71.8159 29.9174C71.4903 29.9174 71.1648 29.9336 70.8393 29.9662C70.5137 29.9987 70.1882 30.015 69.8627 30.015C69.6348 30.015 69.3907 29.9336 69.1303 29.7709C68.9024 29.6081 68.7885 29.3965 68.7885 29.1361C68.7885 28.5176 69.1465 28.2083 69.8627 28.2083C70.1882 28.2083 70.5137 28.2246 70.8393 28.2572C71.1648 28.2572 71.4903 28.2734 71.8159 28.306C72.4669 28.3386 73.1342 28.3711 73.8178 28.4037C74.5014 28.4037 75.1688 28.4037 75.8198 28.4037C77.3824 28.4037 78.9286 28.3548 80.4586 28.2572C82.0211 28.127 83.5674 28.0619 85.0973 28.0619C86.432 28.0619 87.7992 28.1921 89.199 28.4525C90.5987 28.6804 91.9008 29.1035 93.1053 29.722C94.3423 30.3405 95.3352 31.1869 96.0839 32.2611C96.8326 33.3028 97.2069 34.6375 97.2069 36.2651C97.2069 38.2508 96.8 39.8459 95.9862 41.0504C95.2049 42.2548 94.1144 43.1826 92.7147 43.8336C91.3475 44.4847 89.7849 44.9892 88.0271 45.3473C89.4594 47.9515 91.0056 50.5069 92.6658 53.0135C94.326 55.52 96.0025 57.994 97.6952 60.4355C98.151 61.054 98.7369 61.6074 99.4531 62.0957C100.169 62.5514 100.902 62.7793 101.65 62.7793C101.878 62.7793 102.041 62.8118 102.139 62.8769C102.269 62.9095 102.334 63.056 102.334 63.3164ZM116.301 29.1849C116.301 29.7383 116.04 30.015 115.519 30.015C115.129 30.015 114.722 30.015 114.299 30.015C113.908 29.9825 113.517 29.9662 113.127 29.9662C112.801 29.9662 112.573 30.1127 112.443 30.4056C112.313 30.6661 112.248 30.9428 112.248 31.2357C112.248 32.3751 112.232 33.5307 112.199 34.7026C112.199 35.8419 112.199 36.9813 112.199 38.1206C112.199 41.7014 112.199 45.2985 112.199 48.9118C112.232 52.4926 112.248 56.0734 112.248 59.6542C112.248 59.8821 112.232 60.2402 112.199 60.7285C112.166 61.2167 112.199 61.6725 112.297 62.0957C112.427 62.4863 112.671 62.6816 113.029 62.6816C113.452 62.6816 113.875 62.6653 114.299 62.6328C114.722 62.6002 115.145 62.584 115.568 62.584C115.796 62.584 115.959 62.6816 116.056 62.8769C116.154 63.0397 116.203 63.235 116.203 63.4629C116.203 63.6907 116.122 63.8861 115.959 64.0488C115.829 64.2441 115.633 64.3418 115.373 64.3418C114.266 64.3418 113.159 64.3255 112.052 64.293C110.978 64.2604 109.888 64.2441 108.781 64.2441C107.674 64.2441 106.567 64.2604 105.461 64.293C104.354 64.3255 103.247 64.3418 102.14 64.3418C101.815 64.3418 101.603 64.2767 101.505 64.1465C101.408 64.0163 101.359 63.8047 101.359 63.5117C101.359 63.2513 101.408 63.0397 101.505 62.8769C101.636 62.6816 101.831 62.584 102.091 62.584C102.449 62.584 102.808 62.6002 103.166 62.6328C103.524 62.6653 103.865 62.6816 104.191 62.6816C104.647 62.6816 104.956 62.5351 105.119 62.2422C105.282 61.9492 105.379 61.6074 105.412 61.2167C105.444 60.7936 105.461 60.4355 105.461 60.1425L105.509 32.1147C105.509 31.8217 105.477 31.3985 105.412 30.8451C105.347 30.2592 105.119 29.9499 104.728 29.9174C104.63 29.9174 104.533 29.9174 104.435 29.9174C104.37 29.9174 104.289 29.9174 104.191 29.9174C103.865 29.9174 103.54 29.9336 103.214 29.9662C102.921 29.9987 102.612 30.015 102.287 30.015C101.668 30.015 101.359 29.7058 101.359 29.0873C101.359 28.8594 101.424 28.6641 101.554 28.5013C101.717 28.3386 101.912 28.2572 102.14 28.2572C103.54 28.2572 104.923 28.2897 106.291 28.3548C107.69 28.4199 109.09 28.4525 110.49 28.4525C111.336 28.4525 112.183 28.4199 113.029 28.3548C113.908 28.2897 114.771 28.2572 115.617 28.2572C115.877 28.2572 116.056 28.3548 116.154 28.5501C116.252 28.7455 116.301 28.9571 116.301 29.1849ZM136.666 42.2223C136.666 41.4736 136.65 40.5946 136.618 39.5855C136.618 38.5438 136.536 37.4696 136.374 36.3628C136.243 35.2234 135.999 34.1818 135.641 33.2377C135.316 32.2611 134.811 31.4799 134.127 30.8939C133.476 30.2754 132.614 29.9662 131.539 29.9662C130.335 29.9662 129.358 30.2754 128.61 30.8939C127.894 31.5124 127.34 32.31 126.95 33.2866C126.591 34.2306 126.347 35.2397 126.217 36.314C126.087 37.3882 126.022 38.3811 126.022 39.2925C126.022 40.1063 126.054 41.0829 126.119 42.2223C126.217 43.3291 126.412 44.4196 126.705 45.4938C126.998 46.5355 127.47 47.4144 128.121 48.1306C128.772 48.8142 129.684 49.156 130.856 49.156C131.995 49.156 133.021 48.863 133.932 48.2771C134.876 47.6586 135.674 46.9424 136.325 46.1286C136.487 45.4775 136.585 44.8265 136.618 44.1754C136.65 43.5244 136.666 42.8733 136.666 42.2223ZM143.6 43.2965C143.6 44.4033 143.47 45.5752 143.21 46.8122C142.949 48.0166 142.64 49.1397 142.282 50.1814C140.719 54.576 138.424 58.1568 135.397 60.9238C132.402 63.6582 128.659 65.6439 124.166 66.8809C123.841 66.9786 123.499 67.06 123.141 67.1251C122.783 67.1902 122.425 67.2227 122.067 67.2227C121.806 67.2227 121.676 67.0925 121.676 66.8321C121.676 66.7019 121.79 66.5717 122.018 66.4414C122.278 66.3438 122.457 66.2787 122.555 66.2461C123.987 65.5951 125.338 64.8626 126.608 64.0488C127.877 63.2676 129.033 62.3073 130.075 61.1679C131.605 59.5403 132.858 57.7173 133.834 55.6991C134.844 53.6483 135.609 51.5486 136.129 49.4001C135.023 49.921 134.03 50.3116 133.151 50.572C132.272 50.7999 131.214 50.9138 129.977 50.9138C127.959 50.9138 126.136 50.4744 124.508 49.5954C122.88 48.684 121.595 47.447 120.651 45.8844C119.739 44.3219 119.283 42.5152 119.283 40.4644C119.283 37.8928 119.853 35.728 120.992 33.9702C122.132 32.1798 123.678 30.8288 125.631 29.9174C127.584 29.0059 129.782 28.5501 132.223 28.5501C134.111 28.5501 135.804 28.9733 137.301 29.8197C138.831 30.6661 140.101 31.8054 141.11 33.2377C142.119 34.67 142.803 36.2814 143.161 38.0718C143.324 38.9182 143.437 39.7808 143.503 40.6597C143.568 41.5387 143.6 42.4176 143.6 43.2965ZM167.47 63.3164C167.47 63.5443 167.405 63.7559 167.275 63.9512C167.144 64.1465 166.965 64.2441 166.738 64.2441C166.314 64.2441 165.875 64.2279 165.419 64.1953C164.963 64.1628 164.508 64.1302 164.052 64.0977C163.303 64.0326 162.538 64 161.757 64C160.976 64 160.194 64 159.413 64C157.558 64 155.702 64.0488 153.847 64.1465C153.521 64.179 153.196 64.1953 152.87 64.1953C152.545 64.2279 152.219 64.2441 151.893 64.2441C151.275 64.2441 150.966 63.9186 150.966 63.2676C150.966 63.0071 151.08 62.7956 151.308 62.6328C151.535 62.47 151.763 62.3886 151.991 62.3886C152.317 62.3886 152.626 62.4049 152.919 62.4375C153.244 62.47 153.57 62.4863 153.895 62.4863C154.351 62.4863 154.791 62.4375 155.214 62.3398C155.637 62.2422 155.849 61.8841 155.849 61.2656C155.849 56.3827 155.865 51.4998 155.897 46.6169C155.93 41.734 155.946 36.8511 155.946 31.9682C155.718 32.0658 155.279 32.2286 154.628 32.4565C154.009 32.6518 153.342 32.8796 152.626 33.1401C151.91 33.3679 151.259 33.5795 150.673 33.7748C150.087 33.9376 149.729 34.019 149.599 34.019C149.273 34.019 148.996 33.9376 148.768 33.7748C148.541 33.5795 148.427 33.3191 148.427 32.9936C148.427 32.6681 148.459 32.4076 148.524 32.2123C148.622 32.017 148.834 31.8542 149.159 31.724C149.485 31.5938 149.81 31.4962 150.136 31.4311C150.461 31.366 150.787 31.2846 151.112 31.1869C151.861 30.9916 152.593 30.7963 153.31 30.601C154.026 30.3731 154.742 30.1452 155.458 29.9174C155.653 29.8523 156.077 29.7058 156.728 29.4779C157.379 29.25 158.079 29.0059 158.827 28.7455C159.576 28.485 160.227 28.2572 160.78 28.0619C161.366 27.8665 161.692 27.7689 161.757 27.7689C162.082 27.7689 162.343 27.834 162.538 27.9642C162.766 28.0619 162.88 28.2897 162.88 28.6478C162.88 34.0515 162.847 39.4716 162.782 44.9079C162.75 50.3442 162.734 55.7805 162.734 61.2167C162.734 61.5423 162.864 61.8352 163.124 62.0957C163.417 62.3561 163.71 62.4863 164.003 62.4863C164.459 62.4863 164.915 62.47 165.37 62.4375C165.826 62.4049 166.282 62.3886 166.738 62.3886C166.965 62.3886 167.144 62.5026 167.275 62.7304C167.405 62.9258 167.47 63.1211 167.47 63.3164ZM184.699 35.2397C184.536 35.5327 184.162 36.1349 183.576 37.0464C183.023 37.9253 182.355 38.9996 181.574 40.2691C180.825 41.5061 180.044 42.7919 179.23 44.1266C178.416 45.4613 177.651 46.7145 176.935 47.8864C176.252 49.0258 175.682 49.9698 175.226 50.7185C174.803 51.4672 174.591 51.8579 174.591 51.8904C174.591 51.9881 174.656 52.0369 174.787 52.0369H184.699C184.699 50.0837 184.699 48.1306 184.699 46.1774C184.699 44.2243 184.699 42.2711 184.699 40.3179V35.2397ZM197.639 48.8142C197.639 49.0095 197.59 49.4652 197.492 50.1814C197.395 50.8976 197.297 51.63 197.199 52.3787C197.102 53.1274 197.036 53.6645 197.004 53.9901C196.971 54.2179 196.874 54.3481 196.711 54.3807C196.581 54.4132 196.434 54.4295 196.271 54.4295H191.193C191.226 55.4386 191.226 56.4478 191.193 57.4569C191.193 58.4335 191.193 59.4101 191.193 60.3867C191.193 60.8098 191.258 61.2493 191.389 61.705C191.519 62.1608 191.861 62.3886 192.414 62.3886C192.87 62.3886 193.309 62.3724 193.732 62.3398C194.156 62.2747 194.579 62.2422 195.002 62.2422C195.262 62.2422 195.458 62.3398 195.588 62.5351C195.718 62.7304 195.783 62.942 195.783 63.1699C195.783 63.3978 195.718 63.6094 195.588 63.8047C195.458 64 195.262 64.0977 195.002 64.0977C194.546 64.0977 194.074 64.0814 193.586 64.0488C193.13 64.0488 192.674 64.0326 192.219 64C191.502 63.9674 190.786 63.9512 190.07 63.9512C189.354 63.9512 188.622 63.9512 187.873 63.9512C187.124 63.9512 186.375 63.9674 185.627 64C184.878 64 184.129 64.0163 183.381 64.0488C182.99 64.0814 182.599 64.0977 182.209 64.0977C181.818 64.1302 181.411 64.1465 180.988 64.1465C180.76 64.1465 180.549 64.0814 180.353 63.9512C180.158 63.7884 180.06 63.5768 180.06 63.3164C180.06 62.8607 180.19 62.584 180.451 62.4863C180.711 62.3886 181.021 62.3398 181.379 62.3398C181.639 62.3398 181.899 62.3561 182.16 62.3886C182.453 62.3886 182.73 62.3886 182.99 62.3886C183.674 62.3886 184.129 62.2422 184.357 61.9492C184.585 61.6562 184.699 61.2005 184.699 60.582C184.699 59.5403 184.683 58.5149 184.65 57.5057C184.65 56.4641 184.65 55.4386 184.65 54.4295H171.906C171.32 54.4295 171.027 54.1854 171.027 53.6971C171.027 53.4041 171.125 53.1437 171.32 52.9158C172.069 51.5812 172.85 50.2791 173.664 49.0095C174.477 47.7074 175.291 46.4053 176.105 45.1032C177.765 42.4013 179.393 39.6832 180.988 36.9487C182.616 34.2143 184.26 31.5124 185.92 28.8431C186.278 28.2572 186.799 27.9642 187.482 27.9642C187.873 27.9642 188.263 27.9642 188.654 27.9642C189.077 27.9316 189.5 27.9154 189.924 27.9154C190.217 27.9154 190.51 27.9642 190.803 28.0619C191.096 28.127 191.242 28.3548 191.242 28.7455V52.0369H193.342C194.188 52.0369 194.855 51.6788 195.344 50.9627C195.865 50.2139 196.288 49.5303 196.613 48.9118C196.678 48.7491 196.743 48.6189 196.809 48.5212C196.874 48.391 197.004 48.3259 197.199 48.3259C197.492 48.3259 197.639 48.4887 197.639 48.8142ZM220.581 69.8107H196.361V67.9551H220.581V69.8107ZM240.942 37.1929C240.942 35.8257 240.714 34.5724 240.259 33.433C239.803 32.2937 239.087 31.3985 238.11 30.7474C237.166 30.0638 235.962 29.722 234.497 29.722C234.171 29.722 233.846 29.722 233.52 29.722C233.195 29.6895 232.869 29.6732 232.544 29.6732C231.73 29.6732 231.209 29.7546 230.981 29.9174C230.753 30.0476 230.639 30.5684 230.639 31.4799C230.639 33.6935 230.639 35.9233 230.639 38.1695C230.639 40.4156 230.656 42.6455 230.688 44.859C231.177 45.2822 231.746 45.5589 232.397 45.6891C233.048 45.7868 233.683 45.8356 234.302 45.8356C235.994 45.8356 237.313 45.4287 238.257 44.6149C239.233 43.7685 239.917 42.678 240.308 41.3433C240.731 40.0087 240.942 38.6252 240.942 37.1929ZM247.974 37.0464C247.974 39.1949 247.599 40.9527 246.851 42.3199C246.102 43.6546 245.077 44.6963 243.774 45.445C242.505 46.1937 241.04 46.7145 239.38 47.0075C237.752 47.2679 236.027 47.3981 234.204 47.3981C233.618 47.3981 233.032 47.3656 232.446 47.3005C231.86 47.2354 231.274 47.1703 230.688 47.1052C230.688 49.4815 230.688 51.8579 230.688 54.2342C230.688 56.578 230.688 58.9381 230.688 61.3144C230.688 61.5748 230.737 61.8515 230.835 62.1445C230.965 62.4375 231.193 62.584 231.518 62.584C231.942 62.584 232.348 62.5677 232.739 62.5351C233.162 62.5026 233.585 62.4863 234.009 62.4863C234.236 62.4863 234.416 62.6165 234.546 62.8769C234.708 63.1374 234.79 63.3489 234.79 63.5117C234.79 63.7396 234.708 63.9186 234.546 64.0488C234.383 64.179 234.204 64.2441 234.009 64.2441C233.585 64.2441 233.162 64.2279 232.739 64.1953C232.316 64.1628 231.876 64.1302 231.421 64.0977C230.77 64.0326 230.102 64 229.419 64C228.735 64 228.068 64 227.417 64C225.854 64 224.308 64.0488 222.778 64.1465C222.42 64.179 222.062 64.1953 221.704 64.1953C221.378 64.2279 221.036 64.2441 220.678 64.2441C220.353 64.2441 220.141 64.1465 220.044 63.9512C219.946 63.7233 219.897 63.4954 219.897 63.2676C219.897 63.0071 219.995 62.8281 220.19 62.7304C220.385 62.6002 220.597 62.5351 220.825 62.5351C221.118 62.5351 221.411 62.5514 221.704 62.584C221.997 62.6165 222.306 62.6328 222.631 62.6328C222.697 62.6328 222.778 62.6328 222.876 62.6328C222.973 62.6328 223.055 62.6328 223.12 62.6328C223.575 62.6002 223.836 62.3398 223.901 61.8515C223.999 61.3632 224.047 60.9563 224.047 60.6308V31.8705C224.047 31.6101 224.015 31.2357 223.95 30.7474C223.885 30.2266 223.657 29.9499 223.266 29.9174C223.169 29.9174 223.071 29.9174 222.973 29.9174C222.908 29.9174 222.843 29.9174 222.778 29.9174C222.452 29.9174 222.127 29.9336 221.801 29.9662C221.476 29.9987 221.15 30.015 220.825 30.015C220.597 30.015 220.369 29.9174 220.141 29.722C219.946 29.5267 219.848 29.3151 219.848 29.0873C219.848 28.8594 219.946 28.6478 220.141 28.4525C220.369 28.2572 220.597 28.1595 220.825 28.1595C221.183 28.1595 221.541 28.1758 221.899 28.2083C222.29 28.2409 222.664 28.2734 223.022 28.306C223.771 28.3386 224.503 28.3711 225.219 28.4037C225.968 28.4037 226.701 28.4037 227.417 28.4037C228.914 28.4037 230.395 28.3711 231.86 28.306C233.358 28.2083 234.855 28.1595 236.352 28.1595C237.785 28.1595 239.184 28.3223 240.552 28.6478C241.951 28.9408 243.205 29.4291 244.312 30.1127C245.418 30.7963 246.297 31.7078 246.948 32.8471C247.632 33.9864 247.974 35.3862 247.974 37.0464ZM277.907 55.6014C277.907 56.1223 277.842 56.6594 277.712 57.2128C277.614 57.7336 277.533 58.2707 277.468 58.8241C277.402 59.4426 277.321 60.0774 277.223 60.7285C277.158 61.3795 277.093 62.0306 277.028 62.6816C276.93 63.2025 276.784 63.5605 276.589 63.7559C276.393 63.9186 276.019 64 275.466 64C272.145 64 268.825 63.9837 265.504 63.9512C262.184 63.8861 258.864 63.8535 255.543 63.8535C254.404 63.8535 253.265 63.9023 252.125 64C250.986 64.1302 249.847 64.1953 248.707 64.1953C248.154 64.1953 247.877 63.9186 247.877 63.3652C247.877 62.8118 248.121 62.5351 248.61 62.5351C249.098 62.5026 249.619 62.4537 250.172 62.3886C250.823 62.3235 251.344 62.0794 251.735 61.6562C252.158 61.2005 252.369 60.289 252.369 58.9218V32.603C252.369 32.0821 252.272 31.5775 252.076 31.0893C251.914 30.601 251.507 30.3568 250.856 30.3568C250.465 30.3568 250.075 30.3731 249.684 30.4056C249.293 30.4056 248.903 30.4056 248.512 30.4056C247.698 30.4056 247.291 30.015 247.291 29.2338C247.291 28.8431 247.421 28.599 247.682 28.5013C247.942 28.3711 248.235 28.306 248.561 28.306C249.505 28.306 250.433 28.3386 251.344 28.4037C252.256 28.4362 253.167 28.4525 254.078 28.4525C257.138 28.4525 260.198 28.4362 263.258 28.4037C266.318 28.3386 269.378 28.306 272.438 28.306C273.024 28.306 273.61 28.2897 274.196 28.2572C274.782 28.1921 275.368 28.127 275.954 28.0619C276.019 28.5827 276.084 29.1035 276.149 29.6244C276.247 30.1452 276.328 30.6661 276.393 31.1869C276.491 31.8054 276.621 32.4565 276.784 33.1401C276.979 33.8237 277.077 34.491 277.077 35.1421C277.077 35.5327 276.914 35.8582 276.589 36.1186C276.263 36.3465 275.921 36.4604 275.563 36.4604C274.782 36.4604 274.261 36.1186 274.001 35.435C273.512 33.9051 272.78 32.6355 271.803 31.6264C270.859 30.5847 269.525 30.0638 267.799 30.0638H259.01V44.4196C260.247 44.4196 261.452 44.4033 262.624 44.3707C263.828 44.3382 265.032 44.2731 266.237 44.1754C267.441 44.0778 268.597 43.8825 269.704 43.5895C270.159 43.4918 270.632 43.3616 271.12 43.1988C271.641 43.0361 272.129 42.9547 272.585 42.9547C272.975 42.9547 273.171 43.1337 273.171 43.4918C273.171 43.7197 273.106 44.0615 272.975 44.5172C272.878 44.973 272.796 45.3148 272.731 45.5426C272.568 45.9658 272.406 46.2262 272.243 46.3239C272.08 46.389 271.787 46.4216 271.364 46.4216C270.583 46.4216 269.818 46.3727 269.069 46.2751C267.832 46.1449 266.579 46.0635 265.309 46.0309C264.04 45.9658 262.77 45.9333 261.5 45.9333C260.784 45.9333 260.182 46.1286 259.694 46.5192C259.238 46.8773 259.01 47.447 259.01 48.2282V60.2402C259.01 61.0214 259.108 61.5748 259.303 61.9004C259.531 62.2259 260.052 62.3886 260.866 62.3886C261.745 62.3886 262.721 62.3886 263.795 62.3886C264.87 62.3886 265.96 62.3398 267.067 62.2422C268.206 62.1445 269.264 61.9329 270.241 61.6074C271.217 61.2819 272.031 60.7936 272.682 60.1425C273.236 59.5891 273.773 58.8567 274.294 57.9452C274.815 57.0337 275.238 56.2199 275.563 55.5038C275.726 55.1131 275.889 54.8527 276.052 54.7225C276.214 54.5597 276.507 54.4783 276.93 54.4783C277.321 54.4783 277.582 54.576 277.712 54.7713C277.842 54.9666 277.907 55.2433 277.907 55.6014ZM299.286 37.1441C299.286 34.7352 298.749 32.8797 297.674 31.5775C296.633 30.2754 294.859 29.6244 292.352 29.6244H291.473C291.213 29.6244 290.936 29.6244 290.643 29.6244C290.35 29.6244 290.073 29.6569 289.813 29.722C289.487 29.8197 289.276 29.9662 289.178 30.1615C289.08 30.3568 289.032 30.6335 289.032 30.9916C289.032 32.8796 289.015 34.7677 288.983 36.6558C288.983 38.5113 288.983 40.3993 288.983 42.3199V44.3219C289.211 44.3545 289.439 44.387 289.666 44.4196C289.894 44.4196 290.122 44.4196 290.35 44.4196C292.043 44.4196 293.556 44.2243 294.891 43.8336C296.258 43.4104 297.333 42.678 298.114 41.6363C298.895 40.5621 299.286 39.0647 299.286 37.1441ZM311.688 63.3164C311.688 63.6094 311.412 63.8372 310.858 64C310.337 64.1302 309.703 64.2116 308.954 64.2441C308.238 64.3093 307.554 64.3418 306.903 64.3418C306.252 64.3744 305.813 64.3906 305.585 64.3906C304.348 64.3906 303.225 64.2604 302.215 64C301.239 63.7396 300.409 63.0071 299.725 61.8027C298.228 59.1985 296.763 56.5617 295.331 53.8924C293.898 51.1905 292.466 48.5049 291.034 45.8356L288.983 45.7868C288.983 48.3584 288.983 50.9464 288.983 53.5506C289.015 56.1223 289.032 58.7102 289.032 61.3144C289.032 61.6074 289.113 61.9004 289.276 62.1933C289.439 62.4537 289.683 62.584 290.008 62.584C290.399 62.584 290.789 62.5677 291.18 62.5351C291.571 62.5026 291.961 62.4863 292.352 62.4863C292.515 62.4863 292.661 62.6002 292.791 62.8281C292.954 63.0234 293.036 63.2025 293.036 63.3652C293.036 63.5931 292.971 63.7884 292.84 63.9512C292.743 64.1139 292.58 64.1953 292.352 64.1953C292.059 64.1953 291.782 64.179 291.522 64.1465C291.262 64.1139 291.001 64.0977 290.741 64.0977C290.155 64.0326 289.569 64 288.983 64C288.397 64 287.811 64 287.225 64C285.825 64 284.409 64.0326 282.977 64.0977C281.577 64.1628 280.161 64.1953 278.729 64.1953C278.175 64.1953 277.899 63.9023 277.899 63.3164C277.899 63.0885 277.996 62.9095 278.192 62.7793C278.387 62.6165 278.599 62.5351 278.826 62.5351C279.152 62.5351 279.477 62.5514 279.803 62.584C280.128 62.6165 280.454 62.6328 280.78 62.6328C281.235 62.6328 281.626 62.5514 281.951 62.3886C282.277 62.2259 282.44 61.8841 282.44 61.3632V31.1869C282.44 30.6986 282.342 30.3731 282.147 30.2103C281.951 30.015 281.626 29.9174 281.17 29.9174C280.845 29.9174 280.519 29.9336 280.194 29.9662C279.868 29.9987 279.543 30.015 279.217 30.015C278.989 30.015 278.745 29.9336 278.485 29.7709C278.257 29.6081 278.143 29.3965 278.143 29.1361C278.143 28.5176 278.501 28.2083 279.217 28.2083C279.543 28.2083 279.868 28.2246 280.194 28.2572C280.519 28.2572 280.845 28.2734 281.17 28.306C281.821 28.3386 282.489 28.3711 283.172 28.4037C283.856 28.4037 284.523 28.4037 285.174 28.4037C286.737 28.4037 288.283 28.3548 289.813 28.2572C291.375 28.127 292.922 28.0619 294.452 28.0619C295.786 28.0619 297.154 28.1921 298.553 28.4525C299.953 28.6804 301.255 29.1035 302.46 29.722C303.697 30.3405 304.689 31.1869 305.438 32.2611C306.187 33.3028 306.561 34.6375 306.561 36.2651C306.561 38.2508 306.154 39.8459 305.341 41.0504C304.559 42.2548 303.469 43.1826 302.069 43.8336C300.702 44.4847 299.139 44.9892 297.381 45.3473C298.814 47.9515 300.36 50.5069 302.02 53.0135C303.68 55.52 305.357 57.994 307.05 60.4355C307.505 61.054 308.091 61.6074 308.807 62.0957C309.524 62.5514 310.256 62.7793 311.005 62.7793C311.233 62.7793 311.395 62.8118 311.493 62.8769C311.623 62.9095 311.688 63.056 311.688 63.3164ZM336.251 55.0155C336.251 56.9035 335.828 58.4823 334.981 59.7519C334.135 60.9889 333.012 61.9655 331.612 62.6816C330.245 63.3978 328.747 63.9023 327.12 64.1953C325.492 64.4883 323.897 64.6348 322.335 64.6348C321.13 64.6348 319.974 64.4557 318.868 64.0977C317.761 63.7721 316.638 63.3978 315.499 62.9746C314.945 62.7793 314.392 62.6653 313.838 62.6328C313.317 62.5677 312.764 62.5351 312.178 62.5351C312.08 61.7539 311.983 60.9889 311.885 60.2402C311.787 59.4589 311.674 58.6776 311.543 57.8964C311.478 57.343 311.397 56.8059 311.299 56.285C311.202 55.7642 311.153 55.2433 311.153 54.7225C311.153 54.2668 311.234 53.8924 311.397 53.5994C311.592 53.3064 311.934 53.16 312.422 53.16C312.878 53.16 313.22 53.2576 313.448 53.4529C313.708 53.6157 313.903 53.9087 314.034 54.3319C314.262 54.9178 314.441 55.52 314.571 56.1385C314.734 56.757 314.929 57.3755 315.157 57.994C315.71 59.524 316.605 60.7447 317.842 61.6562C319.112 62.5677 320.593 63.0234 322.286 63.0234C324.564 63.0234 326.306 62.3724 327.51 61.0703C328.747 59.7356 329.366 57.9452 329.366 55.6991C329.366 54.397 329.089 53.3227 328.536 52.4764C327.982 51.5974 327.266 50.8487 326.387 50.2302C325.508 49.6117 324.564 49.0258 323.555 48.4724C322.611 47.9515 321.651 47.4632 320.674 47.0075C319.698 46.5518 318.737 46.0798 317.793 45.5915C316.752 45.0381 315.726 44.3545 314.717 43.5406C313.741 42.6943 312.927 41.734 312.276 40.6597C311.657 39.5529 311.348 38.3648 311.348 37.0952C311.348 34.9467 311.901 33.1726 313.008 31.7729C314.148 30.3731 315.596 29.3314 317.354 28.6478C319.144 27.9642 321 27.6224 322.921 27.6224C324.158 27.6224 325.346 27.8014 326.485 28.1595C327.657 28.485 328.796 28.8757 329.903 29.3314C330.261 29.4616 330.587 29.5593 330.88 29.6244C331.205 29.6895 331.547 29.722 331.905 29.722C332.165 29.722 332.41 29.722 332.637 29.722C332.865 29.6895 333.093 29.6569 333.321 29.6244C333.419 30.6661 333.533 31.7078 333.663 32.7494C333.793 33.7911 333.923 34.8328 334.054 35.8745C334.086 36.0373 334.102 36.2163 334.102 36.4116C334.135 36.5744 334.151 36.7371 334.151 36.8999C334.151 37.3556 334.054 37.7788 333.858 38.1695C333.663 38.5275 333.289 38.7066 332.735 38.7066C332.312 38.7066 332.003 38.6089 331.807 38.4136C331.612 38.2183 331.433 37.9416 331.27 37.5835C330.88 36.5744 330.505 35.5815 330.147 34.6049C329.789 33.6284 329.268 32.7169 328.585 31.8705C327.869 30.959 326.973 30.2917 325.899 29.8685C324.825 29.4128 323.718 29.1849 322.579 29.1849C321.472 29.1849 320.544 29.4942 319.795 30.1127C319.047 30.6986 318.493 31.4636 318.135 32.4076C317.777 33.3517 317.598 34.3282 317.598 35.3374C317.598 36.8999 318.005 38.1206 318.819 38.9996C319.665 39.8459 320.707 40.6272 321.944 41.3433C322.628 41.7014 323.311 42.0595 323.995 42.4176C324.711 42.7431 325.411 43.0686 326.094 43.3942C327.722 44.1429 329.301 45.0543 330.831 46.1286C332.393 47.1703 333.679 48.4235 334.688 49.8884C335.73 51.3207 336.251 53.0298 336.251 55.0155Z" fill="#F7EFE3"/>
<path d="M396.125 55.1562C396.125 57.2812 395.656 59.125 394.719 60.6875C393.781 62.25 392.406 63.5729 390.594 64.6562C390.219 64.8854 389.719 65.1458 389.094 65.4375C388.49 65.7292 387.865 65.9792 387.219 66.1875C386.594 66.3958 386.063 66.5 385.625 66.5C385.563 66.5 385.479 66.4792 385.375 66.4375C385.271 66.3958 385.219 66.3333 385.219 66.25C385.219 66.1875 385.24 66.1354 385.281 66.0937C385.344 66.0312 385.396 65.9896 385.438 65.9688C385.479 65.9271 385.531 65.8958 385.594 65.875C385.656 65.8542 385.719 65.8333 385.781 65.8125C386.406 65.5208 387.031 65.2083 387.656 64.875C388.281 64.5208 388.854 64.1146 389.375 63.6562C390.625 62.6146 391.552 61.3437 392.156 59.8437C392.781 58.3229 393.094 56.7604 393.094 55.1562C393.094 53.6771 392.781 52.375 392.156 51.25C391.531 50.125 390.656 49.25 389.531 48.625C388.427 48 387.135 47.6875 385.656 47.6875C384.469 47.6875 383.344 47.9479 382.281 48.4687C381.219 48.9687 380.271 49.6562 379.438 50.5312C378.604 51.3854 377.948 52.3646 377.469 53.4687C377.01 54.5521 376.781 55.6771 376.781 56.8437C376.781 57.0937 376.792 57.4271 376.813 57.8437C376.833 58.2396 376.896 58.6354 377 59.0312C377.104 59.4271 377.26 59.7604 377.469 60.0312C377.677 60.3021 377.969 60.4375 378.344 60.4375C378.76 60.4375 379.208 60.2083 379.688 59.75C380.188 59.2917 380.677 58.7083 381.156 58C381.656 57.2708 382.125 56.5104 382.563 55.7187C383 54.9271 383.375 54.1875 383.688 53.5C384.021 52.8125 384.26 52.2917 384.406 51.9375L387.031 53.625C386.76 54.1458 386.365 54.7812 385.844 55.5312C385.344 56.2812 384.771 57.0521 384.125 57.8437C383.479 58.6354 382.792 59.375 382.063 60.0625C381.333 60.7292 380.604 61.2812 379.875 61.7187C379.167 62.1354 378.49 62.3437 377.844 62.3437C377.26 62.3437 376.75 62.1667 376.313 61.8125C375.875 61.4583 375.521 61.0104 375.25 60.4687C374.979 59.9271 374.771 59.3646 374.625 58.7812C374.5 58.1771 374.438 57.6354 374.438 57.1562C374.438 55.5937 374.781 54.1562 375.469 52.8437C376.156 51.5104 377.073 50.3646 378.219 49.4062C379.365 48.4271 380.646 47.6771 382.063 47.1562C383.5 46.6146 384.958 46.3437 386.438 46.3437C388.25 46.3437 389.885 46.6771 391.344 47.3437C392.823 48.0104 393.99 49 394.844 50.3125C395.698 51.625 396.125 53.2396 396.125 55.1562ZM427.125 43.2812C427.125 42.7604 426.927 42.3021 426.531 41.9062C426.135 41.5104 425.677 41.3125 425.156 41.3125C424.635 41.3125 424.177 41.5104 423.781 41.9062C423.385 42.2812 423.188 42.7396 423.188 43.2812C423.188 43.8229 423.385 44.2917 423.781 44.6875C424.177 45.0833 424.635 45.2812 425.156 45.2812C425.698 45.2812 426.156 45.0833 426.531 44.6875C426.927 44.2708 427.125 43.8021 427.125 43.2812ZM410.344 54.9062C410.052 56.5521 409.479 58.1146 408.625 59.5937C407.792 61.0729 406.729 62.375 405.438 63.5C405.313 63.6042 405.083 63.7708 404.75 64C404.438 64.2292 404.115 64.4375 403.781 64.625C403.448 64.8125 403.208 64.9062 403.063 64.9062C403.021 64.9062 402.958 64.8958 402.875 64.875C402.813 64.8542 402.781 64.8021 402.781 64.7187C402.781 64.5937 402.854 64.4792 403 64.375C404.271 63.0417 405.24 61.4792 405.906 59.6875C406.573 57.8958 407.01 56.1146 407.219 54.3437L410.344 54.9062ZM426.344 49.5312C426.344 50.0937 426.135 50.5104 425.719 50.7812C425.323 51.0312 424.865 51.1562 424.344 51.1562H416.469C416.469 53.5104 416.469 55.8646 416.469 58.2187C416.49 60.5729 416.5 62.9271 416.5 65.2812C416.5 66.1146 416.25 66.7708 415.75 67.25C415.25 67.7292 414.573 67.9688 413.719 67.9688C413.281 67.9688 412.792 67.8542 412.25 67.625C411.708 67.4167 411.177 67.1667 410.656 66.875C410.156 66.5625 409.729 66.2708 409.375 66C409.333 65.9583 409.26 65.8958 409.156 65.8125C409.073 65.7292 409.031 65.6562 409.031 65.5937C409.031 65.4896 409.073 65.4375 409.156 65.4375C409.302 65.4375 409.458 65.4687 409.625 65.5312C409.792 65.5729 409.948 65.6146 410.094 65.6562C410.844 65.8437 411.594 65.9375 412.344 65.9375C412.781 65.9375 413.083 65.8437 413.25 65.6562C413.438 65.4479 413.531 65.1354 413.531 64.7187V51.1562H404.406V49.8125H413.531V44.4062H416.5V49.8125H422.875C422.875 49.7708 422.865 49.7396 422.844 49.7187C422.844 49.6771 422.844 49.6354 422.844 49.5937C422.844 49.1146 423.021 48.6875 423.375 48.3125C423.729 47.9375 424.146 47.75 424.625 47.75C425.104 47.75 425.51 47.9271 425.844 48.2812C426.177 48.6354 426.344 49.0521 426.344 49.5312ZM427.438 64.5312C427.438 64.6146 427.396 64.6771 427.313 64.7187C427.25 64.7396 427.198 64.75 427.156 64.75C427.052 64.75 426.958 64.7292 426.875 64.6875C425.604 64.0625 424.479 63.2083 423.5 62.125C422.542 61.0417 421.74 59.8437 421.094 58.5312C420.469 57.1979 420.021 55.875 419.75 54.5625L422.938 54.125C423.083 55.1875 423.302 56.2396 423.594 57.2812C423.906 58.3229 424.302 59.3646 424.781 60.4062C425.115 61.0729 425.479 61.7396 425.875 62.4063C426.292 63.0521 426.75 63.6458 427.25 64.1875C427.375 64.3125 427.438 64.4271 427.438 64.5312ZM428.094 43.2812C428.094 44.0521 427.802 44.7396 427.219 45.3437C426.656 45.9479 425.969 46.25 425.156 46.25C424.635 46.25 424.146 46.1146 423.688 45.8437C423.25 45.5521 422.885 45.1875 422.594 44.75C422.323 44.2917 422.188 43.8021 422.188 43.2812C422.188 42.4687 422.49 41.7812 423.094 41.2187C423.698 40.6354 424.385 40.3437 425.156 40.3437C425.948 40.3437 426.635 40.6354 427.219 41.2187C427.802 41.8021 428.094 42.4896 428.094 43.2812ZM457.375 54.0625L456.406 56.1875H433.969V54.0625H457.375ZM485 55.4687C485 55.5729 484.906 55.6875 484.719 55.8125C484.552 55.9375 484.396 56.0312 484.25 56.0937C483.896 56.2604 483.5 56.3958 483.063 56.5C482.5 56.625 481.938 56.6979 481.375 56.7187C480.813 56.7396 480.344 56.7396 479.969 56.7187C479.406 56.6771 478.74 56.5625 477.969 56.375C477.198 56.1667 476.479 55.8646 475.813 55.4687C474.875 54.9271 474.104 54.3542 473.5 53.75C473.333 53.5625 473.156 53.375 472.969 53.1875C472.802 52.9792 472.646 52.8021 472.5 52.6562V67.2188H469.531V44.0625H472.5V52.0312C472.667 51.9479 472.885 51.8229 473.156 51.6562C473.448 51.4896 473.729 51.3229 474 51.1562C474.292 50.9687 474.51 50.8229 474.656 50.7187C474.865 50.9896 475.135 51.2917 475.469 51.625C475.823 51.9583 476.177 52.2708 476.531 52.5625C476.885 52.8542 477.177 53.0833 477.406 53.25C477.969 53.625 478.646 53.9583 479.438 54.25C480.229 54.5417 480.865 54.7396 481.344 54.8437C481.885 54.9479 482.406 55.0417 482.906 55.125C483.427 55.1875 484.042 55.25 484.75 55.3125C484.792 55.3125 484.844 55.3229 484.906 55.3437C484.969 55.3646 485 55.4062 485 55.4687ZM513.906 47.5312C513.781 49.9896 513.24 52.3646 512.281 54.6562C511.344 56.9271 510.052 58.9792 508.406 60.8125C506.76 62.625 504.823 64.0729 502.594 65.1562C501.948 65.4896 501.292 65.7708 500.625 66C499.958 66.2292 499.271 66.4271 498.563 66.5937C498.188 66.6771 497.802 66.7708 497.406 66.875C497.031 66.9583 496.646 67 496.25 67C496.167 67 496.031 66.9896 495.844 66.9687C495.677 66.9271 495.594 66.8333 495.594 66.6875C495.594 66.5417 495.667 66.4479 495.813 66.4062C495.958 66.3437 496.083 66.3021 496.188 66.2812C497.417 65.8437 498.656 65.2708 499.906 64.5625C501.156 63.8542 502.271 63.0729 503.25 62.2187C505.292 60.4687 506.875 58.4896 508 56.2812C509.125 54.0729 509.865 51.6458 510.219 49L494.781 49.25V47.625L513.906 47.5312ZM534.969 56.9687C534.615 57.7604 534.094 58.5937 533.406 59.4687C532.719 60.3437 531.938 61.1979 531.063 62.0312C530.208 62.8437 529.323 63.5729 528.406 64.2187C527.51 64.8646 526.667 65.3646 525.875 65.7187C525.667 65.8021 525.385 65.9062 525.031 66.0312C524.677 66.1562 524.396 66.2187 524.188 66.2187C524.167 66.2187 524.125 66.2187 524.063 66.2187C524 66.1979 523.969 66.1562 523.969 66.0937C523.969 66.0521 523.99 66.0104 524.031 65.9688C524.094 65.9271 524.135 65.8958 524.156 65.875C524.448 65.6667 524.74 65.4687 525.031 65.2812C525.323 65.0729 525.594 64.8646 525.844 64.6562C527.26 63.4896 528.573 62.1667 529.781 60.6875C530.99 59.1875 531.948 57.6146 532.656 55.9687L534.969 56.9687ZM543.719 53.1562C543.719 53.6146 543.531 53.9583 543.156 54.1875C542.802 54.4167 542.417 54.5312 542 54.5312H537.313C537.396 55.6771 537.479 56.8333 537.563 58C537.667 59.1667 537.76 60.3333 537.844 61.5C537.906 62.2083 537.958 62.9167 538 63.625C538.042 64.3333 538.063 65.0521 538.063 65.7812C538.063 66.4271 537.844 66.9583 537.406 67.375C536.99 67.7917 536.458 68 535.813 68C535.417 68 534.938 67.8854 534.375 67.6563C533.833 67.4479 533.302 67.1979 532.781 66.9062C532.26 66.5937 531.844 66.3021 531.531 66.0312C531.448 65.9896 531.406 65.9375 531.406 65.875C531.406 65.7708 531.458 65.7187 531.563 65.7187C531.625 65.7187 531.76 65.75 531.969 65.8125C532.177 65.875 532.396 65.9479 532.625 66.0312C532.854 66.0937 533.01 66.1354 533.094 66.1562C533.323 66.2187 533.563 66.2812 533.813 66.3437C534.063 66.3854 534.313 66.4062 534.563 66.4062C534.917 66.4062 535.198 66.2917 535.406 66.0625C535.635 65.8125 535.75 65.5208 535.75 65.1875C535.75 64.5208 535.729 63.875 535.688 63.25C535.646 62.6042 535.604 61.9583 535.563 61.3125L535.063 54.5312H525.406L525.438 53.4062H534.906L534.531 49.5H536.969L537.219 53.4062H540.875C540.854 53.3437 540.844 53.2604 540.844 53.1562C540.844 52.7812 540.979 52.4375 541.25 52.125C541.542 51.8125 541.885 51.6562 542.281 51.6562C542.656 51.6562 542.99 51.8125 543.281 52.125C543.573 52.4375 543.719 52.7812 543.719 53.1562ZM562.906 54.9375C562.906 55 562.885 55.0521 562.844 55.0937C562.49 55.5104 562.042 55.9167 561.5 56.3125C560.979 56.7083 560.417 57.0312 559.813 57.2812C559.229 57.5312 558.667 57.6562 558.125 57.6562C557.375 57.6562 556.802 57.4583 556.406 57.0625C556.031 56.6458 555.844 56.0729 555.844 55.3437V45.4062H558.844L558.813 54.9062C558.813 55.2396 558.854 55.4479 558.938 55.5312C559.021 55.6146 559.229 55.6562 559.563 55.6562C559.833 55.6562 560.156 55.625 560.531 55.5625C560.906 55.4792 561.229 55.3958 561.5 55.3125C561.667 55.2708 561.802 55.2292 561.906 55.1875C562.01 55.125 562.135 55.0729 562.281 55.0312C562.385 54.9896 562.479 54.9479 562.563 54.9062C562.646 54.8646 562.698 54.8437 562.719 54.8437C562.844 54.8437 562.906 54.875 562.906 54.9375ZM571 54.8437C571 57.0521 570.656 58.9062 569.969 60.4062C569.302 61.9062 568.292 63.1458 566.938 64.125C565.604 65.0833 563.917 65.8854 561.875 66.5312C561.604 66.6146 561.167 66.7292 560.563 66.875C559.979 67.0208 559.385 67.1458 558.781 67.25C558.198 67.375 557.771 67.4375 557.5 67.4375C557.417 67.4375 557.323 67.4167 557.219 67.375C557.115 67.3333 557.063 67.2708 557.063 67.1875C557.063 67.1042 557.094 67.0313 557.156 66.9687C557.219 66.9062 557.271 66.8646 557.312 66.8437C557.729 66.6979 558.156 66.5625 558.594 66.4375C559.052 66.2917 559.479 66.1458 559.875 66C561.146 65.5 562.292 64.9271 563.313 64.2812C564.354 63.6354 565.292 62.7396 566.125 61.5937C566.896 60.5521 567.375 59.4062 567.563 58.1562C567.75 56.8854 567.844 55.625 567.844 54.375V44.2812H571V54.8437ZM594.813 53.7187C594.375 54.6979 593.729 55.7292 592.875 56.8125C592.021 57.8958 591.063 58.9479 590 59.9687C588.938 60.9896 587.844 61.9062 586.719 62.7187C585.594 63.5104 584.542 64.1146 583.563 64.5312C583.333 64.6354 582.99 64.7708 582.531 64.9375C582.073 65.0833 581.729 65.1562 581.5 65.1562C581.458 65.1562 581.396 65.1458 581.313 65.125C581.25 65.1042 581.219 65.0729 581.219 65.0312C581.219 64.9687 581.25 64.9167 581.313 64.875C581.375 64.8125 581.417 64.7708 581.438 64.75C581.792 64.5 582.146 64.2604 582.5 64.0312C582.875 63.7812 583.219 63.5208 583.531 63.25C585.281 61.7917 586.906 60.1458 588.406 58.3125C589.906 56.4583 591.083 54.5208 591.938 52.5L594.813 53.7187ZM605.594 49.0312C605.594 49.5937 605.365 50.0208 604.906 50.3125C604.448 50.5833 603.969 50.7187 603.469 50.7187H597.688C597.792 52.1562 597.906 53.5937 598.031 55.0312C598.156 56.4687 598.26 57.8958 598.344 59.3125C598.427 60.2083 598.49 61.0937 598.531 61.9687C598.594 62.8437 598.625 63.7292 598.625 64.625C598.625 65.4167 598.354 66.0729 597.813 66.5937C597.292 67.0938 596.635 67.3438 595.844 67.3438C595.344 67.3438 594.75 67.2188 594.063 66.9687C593.375 66.6979 592.708 66.375 592.063 66C591.438 65.625 590.938 65.2708 590.563 64.9375C590.458 64.875 590.406 64.8021 590.406 64.7187C590.406 64.6146 590.458 64.5625 590.563 64.5625C590.646 64.5625 590.813 64.6042 591.063 64.6875C591.333 64.75 591.604 64.8229 591.875 64.9062C592.167 64.9896 592.365 65.0521 592.469 65.0937C592.76 65.1771 593.063 65.25 593.375 65.3125C593.688 65.3542 594 65.375 594.312 65.375C594.729 65.375 595.073 65.2292 595.344 64.9375C595.615 64.625 595.75 64.2708 595.75 63.875C595.75 63.0833 595.729 62.2917 595.688 61.5C595.646 60.6875 595.594 59.8854 595.531 59.0937L594.906 50.7187H583L583.031 49.3438H594.719L594.25 44.5312H597.25L597.594 49.3438H602.094C602.073 49.3021 602.063 49.25 602.063 49.1875C602.063 49.125 602.063 49.0729 602.063 49.0312C602.063 48.5521 602.229 48.125 602.563 47.75C602.917 47.375 603.333 47.1875 603.813 47.1875C604.292 47.1875 604.708 47.375 605.063 47.75C605.417 48.125 605.594 48.5521 605.594 49.0312Z" fill="#E6E6E6"/>
</svg>
