<svg width="147" height="82" viewBox="0 0 147 82" fill="none" xmlns="http://www.w3.org/2000/svg">
<path d="M35 5C35 7.76142 32.7614 10 30 10C27.2386 10 25 7.76142 25 5C25 2.23858 27.2386 0 30 0C32.7614 0 35 2.23858 35 5Z" fill="#A2D7DD"/>
<path d="M35 19C35 21.7614 32.7614 24 30 24C27.2386 24 25 21.7614 25 19C25 16.2386 27.2386 14 30 14C32.7614 14 35 16.2386 35 19Z" fill="#A2D7DD"/>
<path d="M35 33C35 35.7614 32.7614 38 30 38C27.2386 38 25 35.7614 25 33C25 30.2386 27.2386 28 30 28C32.7614 28 35 30.2386 35 33Z" fill="#A2D7DD"/>
<path d="M30 82L0 42H60L30 82Z" fill="#A2D7DD"/>
<path d="M77.4422 43.9432L78.367 46.5408H79.8766L76.1094 36.64H74.8854L70.9686 46.5408H72.4374L73.3622 43.9432H77.4422ZM75.5382 38L77.075 42.7464H73.6886L75.5382 38Z" fill="#000B00"/>
<path d="M86.1374 46.5408H87.4022V41.808C87.4022 40.0672 86.4865 39.1923 84.655 39.1832C84.2198 39.1832 83.7801 39.3373 83.3358 39.6456C82.8825 39.9448 82.5561 40.3573 82.3566 40.8832V39.2104H81.0918V46.5408H82.3566V43.032C82.3566 42.1435 82.5561 41.4725 82.955 41.0192C83.3449 40.5659 83.9025 40.3392 84.6278 40.3392C85.6342 40.3392 86.1374 40.9467 86.1374 42.1616V46.5408Z" fill="#000B00"/>
<path d="M91.7319 46.704C92.6929 46.704 93.3865 46.3413 93.8127 45.616V46.5408H95.0231V36.436H93.8127V40.2576C93.2324 39.5685 92.5388 39.224 91.7319 39.224C90.7708 39.224 90.0228 39.5459 89.4879 40.1896C88.962 40.8243 88.6991 41.7083 88.6991 42.8416C88.6991 43.9749 88.962 44.9043 89.4879 45.6296C90.0228 46.3459 90.7708 46.704 91.7319 46.704ZM93.8127 42.4336V43.372C93.7492 44.0792 93.5633 44.6051 93.2551 44.9496C92.9468 45.2941 92.4663 45.4664 91.8135 45.4664C91.1697 45.4664 90.6983 45.2352 90.3991 44.7728C90.1089 44.3104 89.9593 43.7029 89.9503 42.9504C89.9684 42.1253 90.1497 41.4997 90.4943 41.0736C90.8297 40.6565 91.2876 40.448 91.8679 40.448C93.0919 40.448 93.7401 41.1099 93.8127 42.4336Z" fill="#000B00"/>
<path d="M101.843 38.8568L104.863 46.16H106.059L108.943 38.8568V46.5408H110.248V36.64H108.698L105.447 44.7456L102.143 36.64H100.592V46.5408H101.843V38.8568Z" fill="#000B00"/>
<path d="M117.158 40.2032C116.496 39.4869 115.68 39.1288 114.71 39.1288C113.731 39.1288 112.924 39.4869 112.289 40.2032C111.655 40.9195 111.337 41.8171 111.337 42.896C111.337 43.9749 111.655 44.8907 112.289 45.6432C112.924 46.3957 113.726 46.772 114.696 46.772C115.667 46.772 116.483 46.3957 117.144 45.6432C117.815 44.8907 118.151 43.9749 118.151 42.896C118.151 41.8171 117.82 40.9195 117.158 40.2032ZM113.146 40.9512C113.518 40.4163 114.026 40.1488 114.669 40.1488C115.313 40.1488 115.825 40.4163 116.206 40.9512C116.587 41.4771 116.777 42.1163 116.777 42.8688C116.777 43.6213 116.587 44.2923 116.206 44.8816C115.816 45.4619 115.299 45.752 114.656 45.752C114.012 45.752 113.504 45.4573 113.132 44.868C112.77 44.2877 112.588 43.6259 112.588 42.8824C112.588 42.1299 112.774 41.4861 113.146 40.9512Z" fill="#000B00"/>
<path d="M122.639 39.1832C122.168 39.1832 121.728 39.3373 121.32 39.6456C120.921 39.9539 120.636 40.3936 120.463 40.9648V39.5232H119.199V46.5408H120.463V42.5288C120.463 41.8216 120.64 41.2912 120.994 40.9376C121.347 40.584 121.914 40.3936 122.694 40.3664C122.866 40.3664 123.043 40.3845 123.224 40.4208L123.238 39.2104C122.93 39.1923 122.73 39.1832 122.639 39.1832Z" fill="#000B00"/>
<path d="M130.24 43.44C130.24 41.4363 129.778 40.1579 128.853 39.6048C128.463 39.3963 128.001 39.292 127.466 39.292C126.487 39.292 125.684 39.6456 125.059 40.3528C124.433 41.06 124.12 41.9395 124.12 42.9912C124.12 44.052 124.428 44.9315 125.045 45.6296C125.652 46.3187 126.45 46.6632 127.439 46.6632C128.427 46.6632 129.293 46.4275 130.036 45.956V44.6504C129.392 45.2216 128.531 45.5072 127.452 45.5072C126.845 45.5072 126.36 45.3485 125.997 45.0312C125.643 44.7229 125.43 44.1925 125.358 43.44H130.24ZM127.452 40.5024C128.042 40.5024 128.468 40.652 128.731 40.9512C128.984 41.2504 129.134 41.7219 129.179 42.3656H125.358C125.521 41.1235 126.21 40.5024 127.425 40.5024H127.452Z" fill="#000B00"/>
<path d="M136.225 46.5408H137.762V44.868H136.225V46.5408Z" fill="#000B00"/>
<path d="M140.462 46.5408H141.999V44.868H140.462V46.5408Z" fill="#000B00"/>
<path d="M144.699 46.5408H146.235V44.868H144.699V46.5408Z" fill="#000B00"/>
</svg>
